<svg xmlns="http://www.w3.org/2000/svg" viewBox="0 0 300 50" fill="#333">
  <!-- Business Insider wordmark - Helvetica bold style outlined -->
  <g transform="translate(5,8)">
    <!-- B -->
    <path d="M0,34V2h12c5,0,8,2.5,8,6.5c0,3-1.5,5-4,6c3,1,5,3.5,5,7c0,4.5-3.5,7.5-9,7.5H0V34zm5.5-19h6c2.5,0,4-1.5,4-3.5s-1.5-3.5-4-3.5h-6v7zm0,14.5h7c3,0,5-1.5,5-4s-2-4-5-4h-7v8z"/>
    <!-- u -->
    <path d="M26,13h5v13c0,3,1.5,4.5,4,4.5s4-1.5,4-4.5V13h5v13.5c0,5-3.5,7.5-9,7.5s-9-2.5-9-7.5V13z"/>
    <!-- s -->
    <path d="M49,29l3-3c1.5,1.5,3.5,2.5,5.5,2.5s3.5-1,3.5-2.5c0-1.5-1.5-2-4.5-3c-3.5-1-6.5-2.5-6.5-6c0-3.5,3-6,7.5-6c3,0,5.5,1,7,3l-3,3c-1.2-1.2-2.8-2-4.5-2s-3,1-3,2.5c0,1.5,1.5,2,4.5,3c3.5,1,6.5,2.5,6.5,6c0,3.5-3,6-8,6C53.5,34,50.5,32,49,29z"/>
    <!-- i -->
    <path d="M69,13h5v21h-5V13zm0-11h5v5h-5V2z"/>
    <!-- n -->
    <path d="M79,13h5v3c1.5-2,4-3.5,7-3.5c5,0,8,3,8,8V34h-5V21.5c0-3-1.5-5-4.5-5S82,18.5,82,21.5V34h-5V13h2z"/>
    <!-- e -->
    <path d="M104,23.5c0-6,4-10.5,10-10.5s9.5,4,9.5,10v2h-14.5c.5,3,2.5,5,6,5c2,0,4-1,5.5-2.5l3,3c-2,2-5,3.5-8.5,3.5C108,34,104,29.5,104,23.5zm5-2h10c-.5-3-2.5-4.5-5-4.5S109.5,18.5,109,21.5z"/>
    <!-- s -->
    <path d="M128,29l3-3c1.5,1.5,3.5,2.5,5.5,2.5s3.5-1,3.5-2.5c0-1.5-1.5-2-4.5-3c-3.5-1-6.5-2.5-6.5-6c0-3.5,3-6,7.5-6c3,0,5.5,1,7,3l-3,3c-1.2-1.2-2.8-2-4.5-2s-3,1-3,2.5c0,1.5,1.5,2,4.5,3c3.5,1,6.5,2.5,6.5,6c0,3.5-3,6-8,6C132.5,34,129.5,32,128,29z"/>
    <!-- s -->
    <path d="M150,29l3-3c1.5,1.5,3.5,2.5,5.5,2.5s3.5-1,3.5-2.5c0-1.5-1.5-2-4.5-3c-3.5-1-6.5-2.5-6.5-6c0-3.5,3-6,7.5-6c3,0,5.5,1,7,3l-3,3c-1.2-1.2-2.8-2-4.5-2s-3,1-3,2.5c0,1.5,1.5,2,4.5,3c3.5,1,6.5,2.5,6.5,6c0,3.5-3,6-8,6C154.5,34,151.5,32,150,29z"/>
    <!-- space + I -->
    <path d="M180,34V2h5.5v32H180z"/>
    <!-- n -->
    <path d="M191,13h5v3c1.5-2,4-3.5,7-3.5c5,0,8,3,8,8V34h-5V21.5c0-3-1.5-5-4.5-5s-5.5,2-5.5,5V34h-5V13z"/>
    <!-- s -->
    <path d="M216,29l3-3c1.5,1.5,3.5,2.5,5.5,2.5s3.5-1,3.5-2.5c0-1.5-1.5-2-4.5-3c-3.5-1-6.5-2.5-6.5-6c0-3.5,3-6,7.5-6c3,0,5.5,1,7,3l-3,3c-1.2-1.2-2.8-2-4.5-2s-3,1-3,2.5c0,1.5,1.5,2,4.5,3c3.5,1,6.5,2.5,6.5,6c0,3.5-3,6-8,6C220.5,34,217.5,32,216,29z"/>
    <!-- i -->
    <path d="M237,13h5v21h-5V13zm0-11h5v5h-5V2z"/>
    <!-- d -->
    <path d="M248,23.5c0-6,4-10.5,9.5-10.5c2.5,0,4.5,1,6,3V0h5v34h-5v-3c-1.5,2-3.5,3-6,3C252,34,248,29.5,248,23.5zm5,0c0,3.5,2.5,6,5.5,6s5.5-2.5,5.5-6-2.5-6-5.5-6S253,20,253,23.5z"/>
    <!-- e -->
    <path d="M273,23.5c0-6,4-10.5,10-10.5s9.5,4,9.5,10v2h-14.5c.5,3,2.5,5,6,5c2,0,4-1,5.5-2.5l3,3c-2,2-5,3.5-8.5,3.5C277,34,273,29.5,273,23.5zm5-2h10c-.5-3-2.5-4.5-5-4.5S278.5,18.5,278,21.5z"/>
    <!-- r -->
    <path d="M296,34V13h-1v21h1z"/>
  </g>
</svg>
