<svg xmlns="http://www.w3.org/2000/svg" viewBox="0 0 200 50" fill="#333">
  <!-- BUZZFEED wordmark -->
  <g transform="translate(3,8)">
    <!-- B -->
    <path d="M0,34V2h11c5,0,8,3,8,7.5c0,3-1.5,5-4,6c3,1,5,3.5,5,7c0,5-3.5,8.5-9,8.5H0zm5-19h6c2.5,0,4-1.5,4-4s-1.5-3.5-4-3.5H5V15zm0,15h7c3,0,5-2,5-4.5S15,21,12,21H5v9z"/>
    <!-- U -->
    <path d="M24,22V2h5v20c0,4.5,2.5,7.5,7,7.5s7-3,7-7.5V2h5v20c0,7.5-5,12.5-12,12.5S24,29.5,24,22z"/>
    <!-- Z -->
    <path d="M52,34v-5l15-22H53V2h19v5L57,29h14v5H52z"/>
    <!-- Z -->
    <path d="M76,34v-5l15-22H77V2h19v5L81,29h14v5H76z"/>
    <!-- F -->
    <path d="M100,34V2h17v5h-12v9h10v5h-10v13h-5z"/>
    <!-- E -->
    <path d="M121,34V2h17v5h-12v8h10v5h-10v9h12v5H121z"/>
    <!-- E -->
    <path d="M143,34V2h17v5h-12v8h10v5h-10v9h12v5H143z"/>
    <!-- D -->
    <path d="M165,34V2h10c8,0,14,6,14,16s-6,16-14,16H165zm5-5h5c5.5,0,9-4,9-11s-3.5-11-9-11h-5v22z"/>
  </g>
</svg>
