<svg xmlns="http://www.w3.org/2000/svg" viewBox="0 0 200 50" fill="#333">
  <!-- MASHABLE wordmark -->
  <g transform="translate(3,8)">
    <!-- M -->
    <path d="M0,34V2h4l10,20L24,2h4v32h-5V12L15,28h-4L3,12v22H0z"/>
    <!-- A -->
    <path d="M42,34l-2-7H30l-2,7h-5L33,2h4l10,32h-5zm-4-12L34,8l-4,14h8z"/>
    <!-- S -->
    <path d="M51,28l4-3c1.5,3,4,5,7.5,5c3,0,5-1.5,5-4c0-2.5-2-4-5.5-5.5C58,18.5,54,16.5,54,12c0-5,4-8.5,9.5-8.5c4,0,7,2,9,5l-4,3c-1.5-2-3.5-3.5-5.5-3.5c-2.5,0-4,1.5-4,3.5c0,2.5,2,3.5,5.5,5C68,18.5,72,20.5,72,25.5c0,5.5-4,9-10,9C57,34.5,53,31.5,51,28z"/>
    <!-- H -->
    <path d="M77,34V2h5v13h12V2h5v32h-5V20H82v14h-5z"/>
    <!-- A -->
    <path d="M115,34l-2-7h-10l-2,7h-5L106,2h4l10,32h-5zm-4-12l-4-14l-4,14h8z"/>
    <!-- B -->
    <path d="M120,34V2h11c5,0,8,3,8,7.5c0,3-1.5,5-4,6c3,1,5,3.5,5,7c0,5-3.5,8.5-9,8.5H120V34zm5-19h6c2.5,0,4-1.5,4-4s-1.5-3.5-4-3.5h-6V15zm0,15h7c3,0,5-2,5-4.5S135,21,132,21h-7v9z"/>
    <!-- L -->
    <path d="M146,34V2h5v27h12v5H146z"/>
    <!-- E -->
    <path d="M166,34V2h17v5h-12v8h10v5h-10v9h12v5H166z"/>
  </g>
</svg>
