<svg xmlns="http://www.w3.org/2000/svg" viewBox="0 0 220 50" fill="#333">
  <!-- THE VERGE wordmark - Georgia bold caps outlined -->
  <g transform="translate(5,8)">
    <!-- T -->
    <path d="M0,2h18v5H12v27H6V7H0V2z"/>
    <!-- H -->
    <path d="M21,34V2h6v13h10V2h6v32h-6V20H27v14h-6z"/>
    <!-- E -->
    <path d="M48,34V2h17v5H54v8h9v5h-9v9h11v5H48z"/>
    <!-- space -->
    <!-- V -->
    <path d="M80,2l8,26l8-26h6L92,34h-8L74,2h6z"/>
    <!-- E -->
    <path d="M104,34V2h17v5h-11v8h9v5h-9v9h11v5H104z"/>
    <!-- R -->
    <path d="M126,34V2h12c5.5,0,9,3,9,8.5c0,4-2,6.5-5,7.5l7,16h-6.5l-6-15h-4.5v15H126zm6-20h6c2.5,0,4-1.5,4-4s-1.5-3.5-4-3.5h-6V14z"/>
    <!-- G -->
    <path d="M152,18c0-9.5,7-16.5,15.5-16.5c5,0,9,2,11.5,5.5l-4.5,3.5c-1.5-2-3.5-3.5-7-3.5c-5.5,0-9.5,4.5-9.5,11s4,11,9.5,11c3,0,5-1,6.5-2.5V22h-7v-5h13v14c-3,3.5-7,5.5-12.5,5.5C159,34.5,152,27.5,152,18z"/>
    <!-- E -->
    <path d="M185,34V2h17v5h-11v8h9v5h-9v9h11v5H185z"/>
  </g>
</svg>
