<?xml version="1.0" encoding="UTF-8" standalone="no"?>
<!DOCTYPE svg PUBLIC "-//W3C//DTD SVG 1.1//EN" "http://www.w3.org/Graphics/SVG/1.1/DTD/svg11.dtd">
<svg width="100%" height="100%" viewBox="0 0 501 500" preserveAspectRatio="none" version="1.1" xmlns="http://www.w3.org/2000/svg" xmlns:xlink="http://www.w3.org/1999/xlink" xml:space="preserve" xmlns:serif="http://www.serif.com/" style="fill-rule:evenodd;clip-rule:evenodd;stroke-linejoin:round;stroke-miterlimit:2;">
    <g transform="matrix(1,0,0,1,-604,0)">
        <g id="red-doodle-oval" serif:id="red doodle oval" transform="matrix(1,0,0,1,604.936,0)">
            <rect x="0" y="0" width="500" height="500" style="fill:none;"/>
            <g transform="matrix(1.12827,0,0,1.12827,-688.165,-33.0212)">
                <path d="M981.327,275.332C963.701,288.548 938.828,295.554 937.536,295.939C849.045,322.357 686.525,307.495 666.325,260.311C665.193,257.667 661.305,248.074 668.368,235.361C701.958,174.9 933.303,175.313 980.641,234.259C983.404,237.7 992.164,249.094 988.146,265.784C1005.1,247.064 993.918,227.566 966.129,212.567C922.568,189.056 835.964,175.771 739.124,194.996L738.042,195.212C737.964,195.227 737.982,195.172 737.212,194.662C737.491,194.482 737.483,194.011 737.763,193.831C737.901,193.742 744.724,192.449 745.331,192.335C892.916,164.373 1017.64,211.362 996.333,258.18C994.121,263.041 990.51,267.447 986.136,271.39C978.858,286.745 955.431,306.012 904.139,313.784C861.686,320.218 816.8,316.707 805.614,316.238C805.036,316.214 805.032,316.234 804.997,316.214C804.559,315.959 804.76,315.742 804.319,315.485C804.618,315.341 804.75,314.952 805.05,314.807C805.368,314.653 830.48,316.69 859.384,315.827C892.054,314.852 933.013,310.295 961.543,293.048C971.85,286.818 977.838,280.49 981.327,275.332ZM984.656,269.263C985.841,266.447 986.13,264.551 986.225,264.064C994.78,220.134 919.198,203.832 903.096,200.515C810.818,181.505 677.075,197.026 667.408,245.501C657.078,297.295 818.215,319.601 918.506,298.028C927.353,296.124 951.033,290.804 971.708,278.59C976.889,275.53 981.186,272.412 984.656,269.263Z" style="fill:rgb(255,0,0);"/>
            </g>
        </g>
    </g>
</svg>
